{"title":"Curse.of.the.Ring.2004.SWESUB.DVDRip.XviD-Zen_Bud","uid":5754447,"size":1476733786,"categoryP":"video","categoryS":"movies","magnet":"?xt=urn:btih:263fd14281dc377dbff1f38f841f46b4dff15400&amp;dn=Curse.of.the.Ring.2004.SWESUB.DVDRip.XviD-Zen_Bud&amp;tr=udp%3A%2F%2Ftracker.openbittorrent.com%3A80&amp;tr=udp%3A%2F%2Fopen.demonii.com%3A1337&amp;tr=udp%3A%2F%2Ftracker.coppersurfer.tk%3A6969&amp;tr=udp%3A%2F%2Fexodus.desync.com%3A6969","seeders":1,"leechers":0,"uploader":"Zen_Bud","files":-1,"time":1281518106,"description":"General\nComplete name                    : Curse.of.the.Ring.2004.avi\nFormat                           : AVI\nFile size                        : 1.38 GiB\nDuration                         : 3h 0mn\nOverall bit rate                 : 1 093 Kbps\n\nVideo\n\nFormat                           : MPEG-4 Visual\nCodec ID/Hint                    : XviD\nDuration                         : 3h 0mn\nBit rate                         : 952 Kbps\nWidth                            : 716 pixels\nHeight                           : 572 pixels\nDisplay aspect ratio             : 16:9\nFrame rate                       : 25.000 fps\nStream size                      : 1.20 GiB (87%)\nWriting library                  : XviD 1.1.2 (UTC 2006-11-01)\n\nAudio\n\nFormat                           : MPEG Audio\nCodec ID/Hint                    : MP3\nDuration                         : 3h 0mn\nBit rate                         : 128 Kbps\nChannel(s)                       : 2 channels\nSampling rate                    : 48.0 KHz\nStream size                      : 165 MiB (12%)\n\n\n","torrent":{"xt":"urn:btih:263fd14281dc377dbff1f38f841f46b4dff15400","amp;dn":"Curse.of.the.Ring.2004.SWESUB.DVDRip.XviD-Zen_Bud","amp;tr":["udp%3A%2F%2Ftracker.openbittorrent.com%3A80","udp%3A%2F%2Fopen.demonii.com%3A1337","udp%3A%2F%2Ftracker.coppersurfer.tk%3A6969","udp%3A%2F%2Fexodus.desync.com%3A6969"],"infoHash":"263fd14281dc377dbff1f38f841f46b4dff15400","infoHashBuffer":{"type":"Buffer","data":[38,63,209,66,129,220,55,125,191,241,243,143,132,31,70,180,223,241,84,0]},"announce":[],"urlList":[]}}